<?xml version="1.0" encoding="utf-8"?>
<svg version="1.1" xmlns:xlink="http://www.w3.org/1999/xlink" width="200px" height="173px" xmlns="http://www.w3.org/2000/svg">
  <defs>
    <mask fill="white" id="clip222">
      <path d="M 130.99065420560737 44.12149532710282  L 192.6728971962616 79.63551401869154  L 199.21495327102798 98.32710280373827  L 199.21495327102798 146.92523364485976  L 175.85046728971952 162.81308411214945  L 116.03738317757006 172.15887850467288  L 73.04672897196247 167.48598130841117  L 23.514018691588717 146.92523364485976  L 7.626168224299022 98.32710280373827  L 0.14953271028036852 54.40186915887841  L 15.102803738317789 8.60747663551399  C 15.102803738317789 8.60747663551399  41.2710280373833 8.60747663551399  57.158878504672884 8.60747663551399  C 73.04672897196247 8.60747663551399  80.52336448598135 0.19626168224294815  80.52336448598135 0.19626168224294815  L 108 0.19626168224294815  L 108 13.280373831775705  L 130.99065420560737 44.12149532710282  Z " fill-rule="evenodd" />
    </mask>
  </defs>
  <g transform="matrix(1 0 0 1 -774 -311 )">
    <path d="M 130.99065420560737 44.12149532710282  L 192.6728971962616 79.63551401869154  L 199.21495327102798 98.32710280373827  L 199.21495327102798 146.92523364485976  L 175.85046728971952 162.81308411214945  L 116.03738317757006 172.15887850467288  L 73.04672897196247 167.48598130841117  L 23.514018691588717 146.92523364485976  L 7.626168224299022 98.32710280373827  L 0.14953271028036852 54.40186915887841  L 15.102803738317789 8.60747663551399  C 15.102803738317789 8.60747663551399  41.2710280373833 8.60747663551399  57.158878504672884 8.60747663551399  C 73.04672897196247 8.60747663551399  80.52336448598135 0.19626168224294815  80.52336448598135 0.19626168224294815  L 108 0.19626168224294815  L 108 13.280373831775705  L 130.99065420560737 44.12149532710282  Z " fill-rule="nonzero" fill="#0040d1" stroke="none" fill-opacity="0.3215686274509804" transform="matrix(1 0 0 1 774 311 )" />
    <path d="M 130.99065420560737 44.12149532710282  L 192.6728971962616 79.63551401869154  L 199.21495327102798 98.32710280373827  L 199.21495327102798 146.92523364485976  L 175.85046728971952 162.81308411214945  L 116.03738317757006 172.15887850467288  L 73.04672897196247 167.48598130841117  L 23.514018691588717 146.92523364485976  L 7.626168224299022 98.32710280373827  L 0.14953271028036852 54.40186915887841  L 15.102803738317789 8.60747663551399  C 15.102803738317789 8.60747663551399  41.2710280373833 8.60747663551399  57.158878504672884 8.60747663551399  C 73.04672897196247 8.60747663551399  80.52336448598135 0.19626168224294815  80.52336448598135 0.19626168224294815  L 108 0.19626168224294815  L 108 13.280373831775705  L 130.99065420560737 44.12149532710282  Z " stroke-width="4" stroke="#0040d1" fill="none" transform="matrix(1 0 0 1 774 311 )" mask="url(#clip222)" />
  </g>
</svg>