<?xml version="1.0" encoding="utf-8"?>
<svg version="1.1" xmlns:xlink="http://www.w3.org/1999/xlink" width="170px" height="132px" xmlns="http://www.w3.org/2000/svg">
  <defs>
    <mask fill="white" id="clip221">
      <path d="M 97.56074766355141 21.551401869158894  L 92.88785046728958 0.05607476635509556  L 48.96261682242994 0.05607476635509556  L 16.252336448598044 21.551401869158894  L 0.36448598130823484 68.2803738317757  L 22.794392523364422 100.0560747663551  L 80.73831775700933 131.8317757009345  L 118.12149532710282 125.28971962616822  L 150.8317757009345 100.0560747663551  L 169.52336448598135 81.36448598130835  L 169.52336448598135 68.2803738317757  L 150.8317757009345 56.13084112149534  L 135.87850467289718 41.177570093457916  L 118.12149532710282 36.5046728971962  C 118.12149532710282 36.5046728971962  112.51401869158894 32.766355140186874  107.84112149532712 27.158878504672884  C 103.16822429906529 21.551401869158894  97.56074766355141 21.551401869158894  97.56074766355141 21.551401869158894  Z " fill-rule="evenodd" />
    </mask>
  </defs>
  <g transform="matrix(1 0 0 1 -885 -256 )">
    <path d="M 97.56074766355141 21.551401869158894  L 92.88785046728958 0.05607476635509556  L 48.96261682242994 0.05607476635509556  L 16.252336448598044 21.551401869158894  L 0.36448598130823484 68.2803738317757  L 22.794392523364422 100.0560747663551  L 80.73831775700933 131.8317757009345  L 118.12149532710282 125.28971962616822  L 150.8317757009345 100.0560747663551  L 169.52336448598135 81.36448598130835  L 169.52336448598135 68.2803738317757  L 150.8317757009345 56.13084112149534  L 135.87850467289718 41.177570093457916  L 118.12149532710282 36.5046728971962  C 118.12149532710282 36.5046728971962  112.51401869158894 32.766355140186874  107.84112149532712 27.158878504672884  C 103.16822429906529 21.551401869158894  97.56074766355141 21.551401869158894  97.56074766355141 21.551401869158894  Z " fill-rule="nonzero" fill="#0040d1" stroke="none" fill-opacity="0.3215686274509804" transform="matrix(1 0 0 1 885 256 )" />
    <path d="M 97.56074766355141 21.551401869158894  L 92.88785046728958 0.05607476635509556  L 48.96261682242994 0.05607476635509556  L 16.252336448598044 21.551401869158894  L 0.36448598130823484 68.2803738317757  L 22.794392523364422 100.0560747663551  L 80.73831775700933 131.8317757009345  L 118.12149532710282 125.28971962616822  L 150.8317757009345 100.0560747663551  L 169.52336448598135 81.36448598130835  L 169.52336448598135 68.2803738317757  L 150.8317757009345 56.13084112149534  L 135.87850467289718 41.177570093457916  L 118.12149532710282 36.5046728971962  C 118.12149532710282 36.5046728971962  112.51401869158894 32.766355140186874  107.84112149532712 27.158878504672884  C 103.16822429906529 21.551401869158894  97.56074766355141 21.551401869158894  97.56074766355141 21.551401869158894  Z " stroke-width="6" stroke="#0040d1" fill="none" transform="matrix(1 0 0 1 885 256 )" mask="url(#clip221)" />
  </g>
</svg>