<?xml version="1.0" encoding="utf-8"?>
<svg version="1.1" xmlns:xlink="http://www.w3.org/1999/xlink" width="20px" height="20px" xmlns="http://www.w3.org/2000/svg">
  <g transform="matrix(1 0 0 1 -1397 -60 )">
    <path d="M 10.995429472656252 4.025  C 10.774156070875078 3.965253483090584  10.548424213265651 3.923451287236986  10.320429472656249 3.9000000000000004  L 9.65792947265625 3.900000000000001  C 9.332788914715284 3.931473546077381  9.010839723108234 3.990009762733208  8.695429472656249 4.075  L 5.62042947265625 5.725  L 5.62042947265625 3.0375000000000005  C 5.620429472656251 4.187499999999999  5.62042947265625 1.8875000000000006  5.62042947265625 3.0375  C 5.62042947265625 2.5611544032709412  6.00658387592719 2.1750000000000003  6.482929472656249 2.1750000000000003  L 8.65792947265625 2.1750000000000003  L 8.657929472656248 0.9250000000000002  C 8.657929472656248 0.4417508438980558  9.049680316554305 0.050000000000000315  9.53292947265625 0.05000000000000032  L 10.39542947265625 0.050000000000000315  C 10.878678628758195 0.05000000000000117  11.27042947265625 0.4417508438980566  11.27042947265625 0.9250000000000003  L 11.27042947265625 2.1750000000000003  L 13.445429472656249 2.1750000000000003  C 13.921775069385308 2.1750000000000003  14.307929472656248 2.5611544032709412  14.307929472656248 3.0375  L 14.307929472656248 5.800000000000001  L 10.995429472656252 4.025  Z M 18.09542947265625 12.137500000000001  L 16.97042947265625 13.725000000000001  C 15.318680536268216 14.100018656902327  13.728034656294803 14.705978992130294  12.245429472656252 15.525  C 9.82042947265625 16.9  9.682929472656252 16.625  7.820429472656249 15.6875  C 6.410018699631728 14.997789169819844  4.936576217382228 14.445248238976278  3.4204294726562505 14.037500000000001  L 2.1704294726562505 12.1  C 0.80792947265625 10.4  0.53292947265625 9.625  1.25792947265625 9.1  L 8.65792947265625 5.2  C 9.47374039038176 4.762208480704297  10.454618554930736 4.762208480704296  11.27042947265625 5.2  L 18.67042947265625 9.1  C 19.132929472656247 9.4875  19.52042947265625 10.262500000000001  18.09542947265625 12.137500000000001  Z M 19.52042947265625 17.7875  L 19.53292947265625 17.750000000000004  C 19.532929472656246 18.226345596729065  19.14677506938531 18.6125  18.670429472656252 18.612500000000004  C 18.53473556065953 18.61366624246109  18.401113846120015 18.579183219354118  18.28292947265625 18.512500000000003  C 17.627452561401718 18.054689754472196  16.856429915003158 17.79046289250415  16.057929472656248 17.75  C 14.949411694229013 17.892652575740975  13.897727309292396 18.323670766288767  13.007929472656253 19  C 12.13404431436636 19.648355433738082  11.05531053869339 19.95910178887021  9.970429472656251 19.875  C 8.88181949007122 19.95763823628116  7.799664261549903 19.647183867443076  6.92042947265625 19  C 6.017521255531139 18.34691682654554  4.971972850303615 17.918413381780162  3.870429472656251 17.75  C 3.0415596296552323 17.6269233434027  2.206152856803799 17.927294317911084  1.6454294726562513 18.550000000000004  C 1.527245099192488 18.61668321935412  1.3936233846529702 18.65116624246109  1.2579294726562509 18.650000000000006  C 0.7815838759271918 18.650000000000006  0.395429472656251 18.263845596729066  0.395429472656251 17.7875  C 0.3808666079075695 17.44337576920335  0.5466591210860602 17.116527671794326  0.832929472656251 16.925000000000004  C 0.832929472656251 16.925000000000004  3.332929472656251 13.975000000000005  7.3579294726562505 16.925000000000004  C 8.007576140785028 17.374776164068123  8.75159088804828 17.669816494879413  9.532929472656251 17.7875  L 10.39542947265625 17.7875  C 11.176884416117147 17.67024803687918  11.920993818323346 17.375170170487067  12.57042947265625 16.925000000000004  C 13.682929472656252 16.150000000000006  16.32042947265625 14.425000000000004  19.09542947265625 16.925000000000004  C 19.373280281115093 17.122603916273803  19.533019398182272 17.44678035973366  19.52042947265625 17.7875  Z " fill-rule="nonzero" fill="#0602d1" stroke="none" transform="matrix(1 0 0 1 1397 60 )" />
  </g>
</svg>