<?xml version="1.0" encoding="utf-8"?>
<svg version="1.1" xmlns:xlink="http://www.w3.org/1999/xlink" width="18px" height="20px" xmlns="http://www.w3.org/2000/svg">
  <g transform="matrix(1 0 0 1 -1495 -60 )">
    <path d="M 3.8458398437500003 5.3374999999999995  C 4.12708984375 5.637499999999999  4.58958984375 5.66458984375  4.8999999999999995 5.4  C 5.147910156250001 7.96875  7.0625 9.960410156250001  9.00833984375 9.960410156250001  C 11.0625 9.960410156250001  13.116660156250001 7.6708398437500005  13.116660156250001 4.85  C 13.116660156250001 4.564589843749999  13.10208984375 4.28125  13.07083984375 3.9979101562499997  C 13.391660156250001 3.9104101562499998  13.612499999999999 3.6166601562499996  13.604160156250002 3.2833398437499994  C 13.604160156250002 2.256249999999999  12.422910156250001 1.1937499999999996  11.035410156250002 0.6291601562499993  C 10.392398269607089 0.3314705157507277  9.689630953439455 0.185361627202132  8.981250000000001 0.20208984375  C 8.15625 0.17291015625  7.3375 0.38333984374999996  6.62916015625 0.80833984375  C 4.35833984375 1.9895898437499997  3.0645898437500003 4.55833984375  3.8458398437500003 5.3374999999999995  Z M 10.079160156250001 18.818750000000005  C 9.181250000000002 17.972910156250002  8.61875 16.833339843750004  8.495839843750002 15.610410156250001  C 6.477970433235441 15.506324417104093  4.57705906425814 14.631564288206658  3.1854101562500006 13.16666015625  C 2.7562499999999996 13.495839843750002  2.35208984375 13.856250000000001  1.9729101562500002 14.245839843750002  C 1.804160156250001 14.425  1.6437500000000003 14.600000000000001  1.4958398437500002 14.75833984375  L 1.4645898437500007 14.78958984375  C 1.3312500000000007 14.954160156250003  1.2020898437500005 15.11875  1.0895898437500007 15.302089843750002  L 1.0437500000000006 15.368750000000002  C 0.9437500000000005 15.508339843750003  0.8500000000000005 15.652089843750002  0.7666601562500006 15.800000000000002  L 0.7041601562500006 15.897910156250003  C 0.6354101562500007 16.016660156250005  0.5729101562500005 16.137500000000003  0.5187500000000003 16.262500000000003  C 0.4975109727006548 16.300855686025432  0.4787233415766523 16.340518462842773  0.4625000000000008 16.381250000000005  C 0.41698979170320616 16.484500791523143  0.379381780835788 16.59105682231416  0.35000000000000053 16.700000000000006  C 0.35000000000000053 16.735410156250005  0.35000000000000053 16.777089843750005  0.31458984375000054 16.808339843750005  C 0.28125000000000067 16.920839843750006  0.2625000000000006 17.035410156250006  0.25208984375000054 17.152089843750005  C 0.25208984375000054 17.789589843750008  0.8020898437500006 18.312500000000007  1.741660156250001 18.69375000000001  C 2.0895898437500007 18.837500000000006  2.445839843750001 18.958339843750007  2.8104101562500015 19.054160156250006  C 4.256250000000001 19.410410156250006  5.733339843750001 19.612500000000004  7.22291015625 19.660410156250006  C 7.793749999999999 19.660410156250006  8.38333984375 19.702089843750006  8.985410156250001 19.702089843750006  L 9.739589843750002 19.702089843750006  C 10.022910156250001 19.691660156250006  10.245839843750002 19.454160156250005  10.235410156250001 19.170839843750006  C 10.231250000000001 19.037500000000005  10.175 18.910410156250006  10.079160156250001 18.818750000000005  Z M 8.983339843749999 10.983339843750004  L 8.98333984375 10.9875  C 8.71041015625 10.9875  8.44375 10.9875  8.17708984375 11.033339843750001  L 7.931249999999999 11.064589843750001  C 7.741660156249999 11.089589843750002  7.5625 11.120839843750002  7.377089843749999 11.15625  L 7.11458984375 11.212500000000002  C 6.921320559364173 11.257711107918507  6.729554829240608 11.30912438603893  6.539589843749999 11.366660156250001  L 6.35416015625 11.422910156250001  C 6.122910156250001 11.500000000000002  5.89791015625 11.587500000000002  5.6708398437500005 11.679160156250001  L 5.372910156250001 11.812500000000002  C 5.24375 11.868750000000002  5.11666015625 11.925  4.99375 11.991660156250001  C 4.87083984375 12.058339843750002  4.77708984375 12.100000000000001  4.670839843749999 12.160410156250002  L 4.34791015625 12.345839843750001  L 4.03541015625 12.535410156250002  C 5.22291015625 13.743750000000002  6.8125 14.472910156250002  8.50416015625 14.579160156250001  C 8.60833984375 13.581250000000002  9.004160156249998 12.637500000000001  9.639589843749999 11.862500000000002  C 9.841660156249999 11.662500000000001  9.843749999999998 11.337500000000002  9.643749999999999 11.135410156250003  C 9.55416015625 11.045839843750002  9.435410156249997 10.991660156250003  9.310410156249999 10.983339843750004  L 8.983339843749999 10.983339843750004  Z M 17.71458984375 15.095839843750001  C 17.71458984375 12.827089843750002  15.875 10.987499999999999  13.606250000000001 10.9875  C 11.337500000000002 10.9875  9.49791015625 12.827089843750002  9.49791015625 15.095839843750001  C 9.49791015625 17.36458984375  11.337499999999999 19.20416015625  13.606250000000001 19.20416015625  C 15.875000000000004 19.20416015625  17.71458984375 17.36458984375  17.71458984375 15.095839843750001  Z M 16.74375 15.610410156250003  L 16.425 16.32916015625  C 15.745839843750002 17.889589843750002  13.929160156250001 18.60208984375  12.36875 17.92291015625  C 11.65625 17.6125  11.0875 17.043750000000003  10.775 16.32916015625  L 10.466660156249999 15.610410156250003  L 12.06458984375 15.610410156250003  L 11.818750000000001 16.125  C 12.097910156250002 16.60208984375  12.55625 16.94583984375  13.09166015625 17.079160156249998  L 13.09166015625 15.35416015625  L 12.32083984375 15.35416015625  C 12.037500000000001 15.35208984375  11.808339843750002 15.11875  11.8125 14.835410156250003  C 11.81458984375 14.556250000000002  12.04166015625 14.329160156250003  12.32083984375 14.327089843750002  L 13.09166015625 14.327089843750002  L 13.09166015625 13.927089843750002  C 12.600000000000001 13.643750000000004  12.431250000000002 13.014589843750002  12.71666015625 12.525000000000002  C 13 12.033339843750001  13.62916015625 11.864589843750002  14.11875 12.15  C 14.60833984375 12.43541015625  14.77916015625 13.062500000000002  14.493750000000002 13.552089843750002  C 14.404160156250002 13.708339843750002  14.272910156250001 13.8375  14.11875 13.927089843750002  L 14.11875 14.327089843750002  L 14.88958984375 14.327089843750002  C 15.172910156250001 14.329160156250003  15.402089843750002 14.560410156250004  15.400000000000002 14.843750000000002  C 15.397910156250003 15.125000000000002  15.170839843750002 15.352089843750003  14.88958984375 15.354160156250003  L 14.11875 15.354160156250003  L 14.11875 17.079160156250005  C 14.65416015625 16.945839843750004  15.1125 16.600000000000005  15.391660156250001 16.122910156250004  L 15.14583984375 15.610410156250003  L 16.74375 15.610410156250003  Z " fill-rule="nonzero" fill="#0602d1" stroke="none" transform="matrix(1 0 0 1 1495 60 )" />
  </g>
</svg>