<?xml version="1.0" encoding="utf-8"?>
<svg version="1.1" xmlns:xlink="http://www.w3.org/1999/xlink" width="40px" height="40px" xmlns="http://www.w3.org/2000/svg">
  <g transform="matrix(1 0 0 1 -415 -82 )">
    <path d="M 32.838541666666664 22.83854166666667  C 33.16840277777778 22.508680555555554  33.333333333333336 22.118055555555554  33.333333333333336 21.66666666666667  L 33.333333333333336 18.333333333333336  C 33.333333333333336 17.881944444444443  33.16840277777778 17.491319444444443  32.838541666666664 17.161458333333336  C 32.50868055555556 16.83159722222222  32.11805555555556 16.666666666666664  31.666666666666664 17  L 18.59375 17  L 23.515625 11.744791666666664  C 23.84548611111111 11.414930555555554  24.010416666666664 11.024305555555554  24.010416666666664 10.572916666666664  C 24.010416666666664 10.121527777777771  23.84548611111111 9.730902777777771  23.515625 9.401041666666664  L 21.145833333333336 7.03125  C 20.833333333333336 6.71875  20.442708333333336 6.5625  19.973958333333332 6.5625  C 19.505208333333332 6.5625  19.114583333333332 6.71875  18.802083333333332 7.03125  L 9.375 16.458333333333336  L 7.005208333333334 18.828125  C 6.692708333333334 19.140625  6.536458333333334 19.53125  6.536458333333334 20  C 6.536458333333334 20.46875  6.692708333333334 20.859375  7.005208333333334 21.171875  L 9.375 23.54166666666667  L 18.802083333333332 32.96875  C 19.114583333333332 33.28125  19.505208333333332 33.4375  19.973958333333332 33.4375  C 20.442708333333336 33.4375  20.833333333333336 33.28125  21.145833333333336 32.96875  L 23.515625 30.598958333333336  C 23.828125000000004 30.286458333333336  23.984375000000004 29.89583333333333  23.984375 29.42708333333333  C 23.984375000000004 28.95833333333333  23.828125000000004 28.56770833333333  23.515625 28.25520833333333  L 18.59375 23  L 31.666666666666664 23  C 32.11805555555556 23.33333333333333  32.50868055555556 23.16840277777778  32.838541666666664 22.83854166666667  Z M 37.317708333333336 9.9609375  C 39.10590277777777 13.025173611111107  40 16.37152777777777  40 20  C 40 23.62847222222222  39.10590277777777 26.974826388888886  37.317708333333336 30.0390625  C 35.52951388888889 33.103298611111114  33.103298611111114 35.529513888888886  30.0390625 37.317708333333336  C 26.974826388888893 39.10590277777778  23.62847222222222 40  20 40  C 16.37152777777778 40  13.02517361111111 39.10590277777778  9.9609375 37.317708333333336  C 6.896701388888889 35.529513888888886  4.470486111111112 33.103298611111114  2.682291666666667 30.0390625  C 0.8940972222222221 26.974826388888886  0 23.62847222222222  0 20  C 0 16.37152777777777  0.8940972222222221 13.025173611111107  2.682291666666667 9.9609375  C 4.470486111111112 6.896701388888888  6.896701388888889 4.470486111111107  9.9609375 2.682291666666665  C 13.02517361111111 0.8940972222222188  16.37152777777778 0  20 0  C 23.62847222222222 0  26.974826388888893 0.8940972222222188  30.0390625 2.682291666666665  C 33.103298611111114 4.470486111111107  35.52951388888889 6.896701388888888  37.317708333333336 9.9609375  Z " fill-rule="nonzero" fill="#0040d1" stroke="none" transform="matrix(1 0 0 1 415 82 )" />
  </g>
</svg>