<?xml version="1.0" encoding="utf-8"?>
<svg version="1.1" xmlns:xlink="http://www.w3.org/1999/xlink" width="48px" height="48px" xmlns="http://www.w3.org/2000/svg">
  <g transform="matrix(1 0 0 1 -1094 -95 )">
    <path d="M 26.389030734375 9.66  C 25.85797457010019 9.5166083594174  25.31621811183756 9.416283089368768  24.769030734375 9.36  L 23.179030734374997 9.360000000000001  C 22.398693395316684 9.435536510585713  21.626015335459762 9.576023430559697  20.869030734374995 9.780000000000001  L 13.489030734375 13.74  L 13.489030734375 7.290000000000002  C 13.489030734375003 10.049999999999997  13.489030734375 4.530000000000001  13.489030734375 7.290000000000001  C 13.489030734375 6.146770567850258  14.415801302225258 5.220000000000001  15.559030734374998 5.220000000000001  L 20.779030734375 5.220000000000001  L 20.77903073437499 2.22  C 20.77903073437499 1.060202025355334  21.719232759730332 0.12000000000000074  22.879030734375 0.12000000000000077  L 24.949030734375 0.12000000000000074  C 26.108828709019665 0.12000000000000281  27.049030734375 1.0602020253553357  27.049030734375 2.2200000000000006  L 27.049030734375 5.220000000000001  L 32.269030734375 5.220000000000001  C 33.412260166524746 5.220000000000001  34.339030734375 6.146770567850258  34.339030734375 7.290000000000001  L 34.339030734375 13.920000000000002  L 26.389030734375 9.66  Z M 43.429030734375004 29.130000000000003  L 40.729030734375 32.94  C 36.76483328704372 33.840044776565584  32.94728317510753 35.29434958111271  29.389030734375 37.26  C 23.569030734375005 40.56  23.239030734375007 39.900000000000006  18.769030734375 37.650000000000006  C 15.384044879116146 35.994694007567624  11.847782921717346 34.66859577354307  8.209030734375002 33.69  L 5.209030734375002 29.04  C 1.939030734375 24.96  1.279030734375 23.1  3.0190307343750002 21.839999999999996  L 20.779030734375 12.48  C 22.73697693691622 11.429300353690312  25.09108453183377 11.429300353690312  27.049030734375 12.48  L 44.809030734375 21.839999999999996  C 45.919030734375 22.770000000000003  46.849030734375006 24.630000000000003  43.429030734375004 29.130000000000003  Z M 46.849030734375006 42.69  L 46.87903073437499 42.60000000000001  C 46.87903073437499 43.74322943214976  45.95226016652474 44.67  44.809030734375 44.670000000000016  C 44.48336534558287 44.67279898190661  44.16267323068804 44.59003972644989  43.87903073437499 44.43000000000001  C 42.30588614736412 43.33125541073328  40.455431796007574 42.69711094200996  38.53903073437499 42.599999999999994  C 35.87858806614963 42.94236618177834  33.35454554230175 43.976809839093036  31.219030734375004 45.599999999999994  C 29.12170635447926 47.1560530409714  26.532745292864135 47.901844293288505  23.929030734375004 47.7  C 21.316366776170923 47.89833176707478  18.71919422771977 47.15324128186339  16.609030734375 45.599999999999994  C 14.442051013274732 44.032600383709294  11.932734840728678 43.00419211627239  9.289030734375002 42.599999999999994  C 7.299743111172557 42.30461602416648  5.294766856329117 43.025506362986604  3.949030734375003 44.52000000000001  C 3.665388238061971 44.68003972644989  3.344696123167129 44.76279898190661  3.0190307343750025 44.76000000000002  C 1.8758013022252602 44.76000000000002  0.9490307343750024 43.833229432149764  0.9490307343750024 42.69  C 0.9140798589781667 41.86410184608803  1.3119818906065444 41.07966641230638  1.9990307343750024 40.620000000000005  C 1.9990307343750024 40.620000000000005  7.999030734375002 33.540000000000006  17.659030734375 40.620000000000005  C 19.21818273788407 41.6994627937635  21.003818131315874 42.407559587710594  22.879030734375 42.69  L 24.949030734375 42.69  C 26.824522598681156 42.40859528851003  28.610385163976034 41.70040840916896  30.169030734375 40.620000000000005  C 32.839030734375 38.76000000000002  39.169030734375 34.620000000000005  45.829030734374996 40.620000000000005  C 46.49587267467622 41.094249399057134  46.87924655563745 41.87227286336078  46.849030734375006 42.69  Z " fill-rule="nonzero" fill="#0602d1" stroke="none" transform="matrix(1 0 0 1 1094 95 )" />
  </g>
</svg>