<?xml version="1.0" encoding="utf-8"?>
<svg version="1.1" xmlns:xlink="http://www.w3.org/1999/xlink" width="33px" height="33px" xmlns="http://www.w3.org/2000/svg">
  <g transform="matrix(1 0 0 1 -20 -20 )">
    <path d="M 18.142458629882814 6.64125  C 17.77735751694388 6.5426682470994635  17.40489995188832 6.473694623941028  17.02870862988281 6.4350000000000005  L 15.935583629882812 6.435000000000001  C 15.399101709280218 6.486931351027678  14.867885543128585 6.583516108509793  14.34745862988281 6.723750000000001  L 9.273708629882812 9.446250000000001  L 9.273708629882812 5.011875000000002  C 9.273708629882814 6.909374999999998  9.273708629882812 3.114375000000001  9.273708629882812 5.011875000000001  C 9.273708629882812 4.225904765397052  9.910863395279865 3.5887500000000006  10.69683362988281 3.5887500000000006  L 14.285583629882812 3.5887500000000006  L 14.285583629882808 1.52625  C 14.285583629882808 0.7288888924317921  14.931972522314602 0.08250000000000052  15.729333629882811 0.08250000000000053  L 17.152458629882812 0.08250000000000052  C 17.94981973745102 0.08250000000000193  18.59620862988281 0.7288888924317933  18.59620862988281 1.5262500000000006  L 18.59620862988281 3.5887500000000006  L 22.18495862988281 3.5887500000000006  C 22.97092886448576 3.5887500000000006  23.60808362988281 4.225904765397052  23.60808362988281 5.011875000000001  L 23.60808362988281 9.57  L 18.142458629882814 6.64125  Z M 29.857458629882814 20.026875  L 28.00120862988281 22.646250000000002  C 25.275822884842558 23.26503078388884  22.651257182886425 24.26486533701499  20.204958629882814 25.61625  C 16.203708629882815 27.884999999999998  15.976833629882815 27.431250000000002  12.903708629882813 25.884375000000002  C 10.57653085439235 24.74635213020274  8.145350758680676 23.83465959431086  5.643708629882814 23.161875000000002  L 3.5812086298828136 19.965  C 1.3330836298828124 17.16  0.8793336298828125 15.88125  2.0755836298828125 15.014999999999999  L 14.285583629882812 8.58  C 15.631671644129904 7.85764399316209  17.250120615635716 7.857643993162089  18.59620862988281 8.58  L 30.80620862988281 15.014999999999999  C 31.56933362988281 15.654375000000002  32.208708629882814 16.933125  29.857458629882814 20.026875  Z M 32.208708629882814 29.349375000000002  L 32.22933362988281 29.287500000000005  C 32.22933362988281 30.073470234602958  31.59217886448576 30.710625  30.806208629882814 30.710625000000007  C 30.582313675088223 30.712549300060797  30.361837846098027 30.655652311934297  30.16683362988281 30.545625000000005  C 29.085296726312833 29.790238094879125  27.81310935975521 29.354263772631846  26.49558362988281 29.287499999999998  C 24.666529295477872 29.52287674997261  22.931250060332452 30.234056764376465  21.463083629882817 31.349999999999998  C 20.021173118704493 32.41978646566783  18.241262388844095 32.932517951635845  16.451208629882814 32.79375  C 14.655002158617512 32.93010308986391  12.869446031557342 32.41785338128108  11.418708629882813 31.349999999999998  C 9.928910071626378 30.27241276380014  8.203755203000965 29.56538207993727  6.386208629882814 29.287499999999998  C 5.0185733889311335 29.084423516614457  3.6401522137262683 29.58003562455329  2.7149586298828146 30.60750000000001  C 2.5199544136676053 30.717527311934298  2.299478584677401 30.774424300060797  2.075583629882814 30.77250000000001  C 1.2896133952798663 30.77250000000001  0.6524586298828141 30.135345234602962  0.6524586298828141 29.349375000000002  C 0.6284299030474896 28.781570019185526  0.9019875497919992 28.242270658460637  1.3743336298828142 27.926250000000007  C 1.3743336298828142 27.926250000000007  5.4993336298828135 23.058750000000007  12.140583629882814 27.926250000000007  C 13.212500632295297 28.668380670712406  14.440124965279663 29.15519721655103  15.729333629882813 29.349375000000002  L 17.152458629882812 29.349375000000002  C 18.441859286593292 29.155909260850645  19.669639800233522 28.66903078130366  20.741208629882813 27.926250000000007  C 22.576833629882813 26.64750000000001  26.928708629882813 23.801250000000007  31.507458629882812 27.926250000000007  C 31.965912463839903 28.252296461851778  32.22948200700075 28.787187593560535  32.208708629882814 29.349375000000002  Z " fill-rule="nonzero" fill="#0602d1" stroke="none" transform="matrix(1 0 0 1 20 20 )" />
  </g>
</svg>