<?xml version="1.0" encoding="utf-8"?>
<svg version="1.1" xmlns:xlink="http://www.w3.org/1999/xlink" width="43px" height="48px" xmlns="http://www.w3.org/2000/svg">
  <g transform="matrix(1 0 0 1 -1478 -95 )">
    <path d="M 9.187284071180557 12.809999999999999  C 9.859159071180557 13.53  10.964020182291666 13.595015624999998  11.705555555555554 12.96  C 12.297785373263892 19.125  16.87152777777778 23.904984375000005  21.519922960069447 23.904984375000005  C 26.427083333333336 23.904984375000005  31.334243706597228 18.410015625  31.334243706597228 11.64  C 31.334243706597228 10.955015624999998  31.299436848958333 10.274999999999999  31.224784071180558 9.594984375  C 31.99118815104167 9.384984375  32.51875 8.679984374999998  32.49882703993056 7.880015624999999  C 32.49882703993056 5.414999999999997  29.67695203993056 2.8649999999999993  26.362368706597227 1.5099843749999984  C 24.826284755172487 0.7955292378017464  23.147451722105366 0.44486790528511677  21.455208333333335 0.48501562499999995  C 19.484375 0.41498437499999996  17.528472222222224 0.920015625  15.836327039930557 1.940015625  C 10.411589626736111 4.775015625  7.320964626736112 10.940015625000001  9.187284071180557 12.809999999999999  Z M 24.077993706597223 45.165000000000006  C 21.932986111111116 43.134984375  20.589236111111113 40.40001562500001  20.29561740451389 37.464984375  C 15.475151590506886 37.21517860104983  10.934085542394445 35.11575429169598  7.609590928819445 31.599984375000002  C 6.584375 32.390015625000004  5.618881293402778 33.255  4.713063151041667 34.190015625  C 4.309938151041669 34.620000000000005  3.9267361111111114 35.040000000000006  3.573395182291667 35.420015625000005  L 3.4987424045138904 35.49501562500001  C 3.180208333333335 35.889984375000004  2.8716590711805567 36.285000000000004  2.602909071180557 36.725015625000005  L 2.493402777777779 36.885000000000005  C 2.2545138888888903 37.22001562500001  2.030555555555557 37.565015625  1.831465928819446 37.92000000000001  L 1.6821603732638903 38.15498437500001  C 1.5179242621527795 38.43998437500001  1.3686187065972235 38.730000000000004  1.2392361111111119 39.03  C 1.1884984347848975 39.12205364646104  1.143616871544225 39.21724431082265  1.104861111111113 39.31500000000001  C 0.9961422801798814 39.56280189965554  0.9063009208854935 39.81853637355398  0.8361111111111124 40.08000000000001  C 0.8361111111111124 40.16498437500002  0.8361111111111124 40.26501562500002  0.751520182291668 40.34001562500001  C 0.6718750000000017 40.61001562500002  0.6270833333333349 40.884984375000016  0.6022146267361124 41.16501562500001  C 0.6022146267361124 42.695015625000025  1.9161035156250013 43.95000000000002  4.160632595486113 44.86500000000002  C 4.991797960069446 45.21000000000001  5.842839626736113 45.50001562500002  6.713757595486114 45.729984375000015  C 10.167708333333337 46.58498437500002  13.696311848958336 47.07000000000001  17.254729817708334 47.18498437500001  C 18.618402777777774 47.18498437500001  20.02686740451389 47.285015625000014  21.465146484375005 47.285015625000014  L 23.26679796006945 47.285015625000014  C 23.943618706597228 47.259984375000016  24.476172960069448 46.68998437500001  24.451257595486112 46.01001562500001  C 24.441319444444446 45.69000000000001  24.306944444444444 45.384984375000016  24.077993706597223 45.165000000000006  Z M 21.46020073784722 26.36001562500001  L 21.460200737847224 26.370000000000005  C 20.808202039930553 26.370000000000005  20.171180555555555 26.370000000000005  19.534159071180554 26.480015625  L 18.946875 26.555015625000003  C 18.493965928819442 26.615015625  18.06597222222222 26.690015625  17.623047960069442 26.775000000000002  L 16.99596462673611 26.910000000000007  C 16.534265780703304 27.018506659004416  16.076158758741453 27.141898526493428  15.622353515624999 27.279984375000005  L 15.17938259548611 27.414984375000003  C 14.626952039930556 27.6  14.089452039930556 27.810000000000002  13.547006293402779 28.029984375000005  L 12.83528537326389 28.35  C 12.526736111111113 28.485000000000003  12.223132595486112 28.620000000000005  11.92951388888889 28.779984375000005  C 11.635895182291666 28.940015625  11.411936848958334 29.040000000000006  11.158117404513886 29.184984375000003  L 10.386674262152779 29.630015625000006  L 9.640146484375 30.084984375000005  C 12.476952039930557 32.985  16.274305555555554 34.73498437500001  20.315493706597223 34.989984375000006  C 20.564367404513888 32.595000000000006  21.509938151041663 30.330000000000005  23.027909071180552 28.470000000000006  C 23.510632595486108 27.990000000000006  23.515624999999996 27.210000000000008  23.03784722222222 26.724984375000005  C 22.823827039930553 26.51001562500001  22.540146484374993 26.379984375000006  22.241535373263883 26.36001562500001  L 21.46020073784722 26.36001562500001  Z M 42.31818684895834 36.230015625  C 42.31818684895834 30.785015625000003  37.92361111111111 26.369999999999997  32.503819444444446 26.370000000000005  C 27.08402777777778 26.370000000000005  22.689452039930558 30.785015625000003  22.689452039930558 36.230015625  C 22.689452039930558 41.675015625  27.084027777777774 46.089984375  32.503819444444446 46.089984375  C 37.92361111111112 46.089984375  42.31818684895834 41.675015625  42.31818684895834 36.230015625  Z M 39.998958333333334 37.46498437500001  L 39.237500000000004 39.18998437500001  C 37.61506184895834 42.935015625000005  33.27521592881945 44.645015625  29.54756944444445 43.014984375  C 27.84548611111111 42.269999999999996  26.486805555555556 40.905  25.740277777777777 39.18998437500001  L 25.003688151041665 37.46498437500001  L 28.82096462673611 37.46498437500001  L 28.23368055555556 38.7  C 28.900563151041673 39.845015625  29.995486111111113 40.670015625000005  31.274521484375 40.98998437499999  L 31.274521484375 36.849984375000005  L 29.43311740451389 36.849984375000005  C 28.75625 36.845015625  28.208811848958337 36.285000000000004  28.21875 35.604984375  C 28.223742404513885 34.935  28.766188151041664 34.389984375000004  29.43311740451389 34.38501562500001  L 31.274521484375 34.38501562500001  L 31.274521484375 33.42501562500001  C 30.1 32.745000000000005  29.696875000000006 31.235015625000003  30.37868815104167 30.060000000000002  C 31.055555555555554 28.880015625000006  32.55854926215278 28.475015625000005  33.728125 29.160000000000004  C 34.897700737847224 29.844984375  35.305771484375 31.35  34.623958333333334 32.525015625  C 34.40993815104167 32.900015625  34.096396484375 33.21  33.728125 33.42501562500001  L 33.728125 34.38501562500001  L 35.569575737847224 34.38501562500001  C 36.246396484375005 34.389984375000004  36.793881293402784 34.944984375000004  36.78888888888889 35.62500000000001  C 36.783896484375006 36.300000000000004  36.241450737847224 36.84501562500001  35.569575737847224 36.849984375000005  L 33.728125 36.849984375000005  L 33.728125 40.989984375000006  C 35.007160373263886 40.670015625000005  36.10208333333333 39.84000000000002  36.76896592881945 38.694984375000004  L 36.181728515625 37.46498437500001  L 39.998958333333334 37.46498437500001  Z " fill-rule="nonzero" fill="#0602d1" stroke="none" transform="matrix(1 0 0 1 1478 95 )" />
  </g>
</svg>