<?xml version="1.0" encoding="utf-8"?>
<svg version="1.1" xmlns:xlink="http://www.w3.org/1999/xlink" width="1623px" height="60px" xmlns="http://www.w3.org/2000/svg">
  <g>
    <path d="M 1 5.000000000000001  A 4 4 0 0 1 4.999999999999999 1 L 1618 1  A 4 4 0 0 1 1622 5 L 1622 55  A 4 4 0 0 1 1618 59 L 5 59  A 4 4 0 0 1 1 55 L 1 5  Z " fill-rule="nonzero" fill="#ffffff" stroke="none" />
    <path d="M 0.5 5.000000000000001  A 4.5 4.5 0 0 1 4.999999999999999 0.5 L 1618 0.5  A 4.5 4.5 0 0 1 1622.5 5 L 1622.5 55  A 4.5 4.5 0 0 1 1618 59.5 L 5 59.5  A 4.5 4.5 0 0 1 0.5 55 L 0.5 5  Z " stroke-width="1" stroke="#e6e6e6" fill="none" stroke-opacity="0.6509803921568628" />
  </g>
</svg>