<?xml version="1.0" encoding="utf-8"?>
<svg version="1.1" xmlns:xlink="http://www.w3.org/1999/xlink" width="1627px" height="64px" xmlns="http://www.w3.org/2000/svg">
  <defs>
    <filter x="20px" y="203px" width="1627px" height="64px" filterUnits="userSpaceOnUse" id="filter16">
      <feOffset dx="1" dy="1" in="SourceAlpha" result="shadowOffsetInner" />
      <feGaussianBlur stdDeviation="1" in="shadowOffsetInner" result="shadowGaussian" />
      <feComposite in2="shadowGaussian" operator="atop" in="SourceAlpha" result="shadowComposite" />
      <feColorMatrix type="matrix" values="0 0 0 0 0.6235294117647059  0 0 0 0 0.6235294117647059  0 0 0 0 0.6235294117647059  0 0 0 0.34901960784313724 0  " in="shadowComposite" />
    </filter>
    <g id="widget17">
      <path d="M 22 214  A 9 9 0 0 1 31 205 L 1634 205  A 9 9 0 0 1 1643 214 L 1643 263  L 22 263  L 22 214  Z " fill-rule="nonzero" fill="#75adff" stroke="none" fill-opacity="0.25882352941176473" />
      <path d="M 21.5 214  A 9.5 9.5 0 0 1 31 204.5 L 1634 204.5  A 9.5 9.5 0 0 1 1643.5 214 L 1643.5 263.5  L 21.5 263.5  L 21.5 214  Z " stroke-width="1" stroke="#e6e6e6" fill="none" stroke-opacity="0.6509803921568628" />
    </g>
  </defs>
  <g transform="matrix(1 0 0 1 -20 -203 )">
    <use xlink:href="#widget17" filter="url(#filter16)" />
    <use xlink:href="#widget17" />
  </g>
</svg>