<?xml version="1.0" encoding="utf-8"?>
<svg version="1.1" xmlns:xlink="http://www.w3.org/1999/xlink" width="585px" height="325px" xmlns="http://www.w3.org/2000/svg">
  <defs>
    <mask fill="white" id="clip70">
      <path d="M 0 289  L 0 17  C 0 10.280000000000001  5.279999999999973 5  12 5  L 515.7333333333343 5  L 520.0666666666687 0  L 524.1333333333343 5  L 549 5  C 555.72 5  561 10.280000000000001  561 17  L 561 289  C 561 295.71999999999997  555.72 301  549 301  L 12 301  C 5.279999999999973 301  0 295.71999999999997  0 289  Z " fill-rule="evenodd" />
    </mask>
    <filter x="-333px" y="25px" width="585px" height="325px" filterUnits="userSpaceOnUse" id="filter71">
      <feOffset dx="0" dy="3" in="SourceAlpha" result="shadowOffsetInner" />
      <feGaussianBlur stdDeviation="6" in="shadowOffsetInner" result="shadowGaussian" />
      <feComposite in2="shadowGaussian" operator="atop" in="SourceAlpha" result="shadowComposite" />
      <feColorMatrix type="matrix" values="0 0 0 0 0  0 0 0 0 0  0 0 0 0 0  0 0 0 0.09803921568627451 0  " in="shadowComposite" />
    </filter>
    <g id="widget72">
      <path d="M 0 289  L 0 17  C 0 10.280000000000001  5.279999999999973 5  12 5  L 515.7333333333343 5  L 520.0666666666687 0  L 524.1333333333343 5  L 549 5  C 555.72 5  561 10.280000000000001  561 17  L 561 289  C 561 295.71999999999997  555.72 301  549 301  L 12 301  C 5.279999999999973 301  0 295.71999999999997  0 289  Z " fill-rule="nonzero" fill="#ffffff" stroke="none" transform="matrix(1 0 0 1 -321 34 )" />
      <path d="M 0 289  L 0 17  C 0 10.280000000000001  5.279999999999973 5  12 5  L 515.7333333333343 5  L 520.0666666666687 0  L 524.1333333333343 5  L 549 5  C 555.72 5  561 10.280000000000001  561 17  L 561 289  C 561 295.71999999999997  555.72 301  549 301  L 12 301  C 5.279999999999973 301  0 295.71999999999997  0 289  Z " stroke-width="2" stroke="#e4e4e4" fill="none" transform="matrix(1 0 0 1 -321 34 )" mask="url(#clip70)" />
    </g>
  </defs>
  <g transform="matrix(1 0 0 1 333 -25 )">
    <use xlink:href="#widget72" filter="url(#filter71)" />
    <use xlink:href="#widget72" />
  </g>
</svg>