<?xml version="1.0" encoding="utf-8"?>
<svg version="1.1" xmlns:xlink="http://www.w3.org/1999/xlink" width="9px" height="10px" xmlns="http://www.w3.org/2000/svg">
  <g transform="matrix(1 0 0 1 24 -60 )">
    <path d="M 5.32919254658384 8.937875751503014  C 5.391304347826156 9.004676018704089  5.42236024844716 9.081496325985313  5.42236024844716 9.168336673346687  C 5.42236024844716 9.25517702070809  5.391304347826156 9.331997327989313  5.32919254658384 9.398797595190388  L 4.863354037267038 9.899799599198417  C 4.801242236024927 9.966599866399463  4.729813664596372 10  4.649068322981271 10  C 4.568322981366475 10  4.496894409937817 9.966599866399463  4.434782608695605 9.899799599198417  L 0.0931677018633195 5.230460921843672  C 0.03105590062120882 5.1636606546426265  0 5.086840347361402  0 5  C 0 4.913159652638598  0.03105590062120882 4.8363393453573735  0.0931677018633195 4.769539078156328  L 4.434782608695605 0.1002004008015831  C 4.496894409937817 0.033400133600537174  4.568322981366475 0  4.649068322981271 0  C 4.729813664596372 0  4.801242236024927 0.033400133600537174  4.863354037267038 0.1002004008015831  L 5.32919254658384 0.6012024048096123  C 5.391304347826156 0.6680026720106866  5.42236024844716 0.7448229792919108  5.42236024844716 0.8316633266533131  C 5.42236024844716 0.918503674014687  5.391304347826156 0.9953239812959112  5.32919254658384 1.0621242484969855  L 1.6677018633540228 5  L 5.32919254658384 8.937875751503014  Z M 8.90683229813668 8.937875751503014  C 8.968944099378893 9.004676018704089  9 9.081496325985313  9 9.168336673346687  C 9 9.25517702070809  8.968944099378893 9.331997327989313  8.90683229813668 9.398797595190388  L 8.440993788819776 9.899799599198417  C 8.378881987577666 9.966599866399463  8.30745341614911 10  8.22670807453411 10  C 8.145962732919214 10  8.074534161490659 9.966599866399463  8.012422360248342 9.899799599198417  L 3.6708074534161597 5.230460921843672  C 3.6086956521738442 5.1636606546426265  3.5776397515528404 5.086840347361402  3.5776397515528404 5  C 3.5776397515528404 4.913159652638598  3.6086956521738442 4.8363393453573735  3.6708074534161597 4.769539078156328  L 8.012422360248342 0.1002004008015831  C 8.074534161490659 0.033400133600537174  8.145962732919214 0  8.22670807453411 0  C 8.30745341614911 0  8.378881987577666 0.033400133600537174  8.440993788819776 0.1002004008015831  L 8.90683229813668 0.6012024048096123  C 8.968944099378893 0.6680026720106866  9 0.7448229792919108  9 0.8316633266533131  C 9 0.918503674014687  8.968944099378893 0.9953239812959112  8.90683229813668 1.0621242484969855  L 5.245341614906863 5  L 8.90683229813668 8.937875751503014  Z " fill-rule="nonzero" fill="#999999" stroke="none" transform="matrix(1 0 0 1 -24 60 )" />
  </g>
</svg>