<?xml version="1.0" encoding="utf-8"?>
<svg version="1.1" xmlns:xlink="http://www.w3.org/1999/xlink" width="6px" height="10px" xmlns="http://www.w3.org/2000/svg">
  <g transform="matrix(1 0 0 1 3 -60 )">
    <path d="M 5.89690721649481 0.6012024048096123  C 5.9656357388315655 0.6680026720106866  6 0.7448229792919108  6 0.8316633266533131  C 6 0.918503674014687  5.9656357388315655 0.9953239812959112  5.89690721649481 1.0621242484969855  L 1.845360824742329 5  L 5.89690721649481 8.937875751503014  C 5.9656357388315655 9.004676018704089  6 9.081496325985313  6 9.168336673346687  C 6 9.25517702070809  5.9656357388315655 9.331997327989313  5.89690721649481 9.398797595190388  L 5.381443298969089 9.899799599198417  C 5.312714776632333 9.966599866399463  5.233676975945059 10  5.144329896907266 10  C 5.0549828178694725 10  4.975945017182198 9.966599866399463  4.907216494845443 9.899799599198417  L 0.1030927835051898 5.230460921843672  C 0.034364261168434496 5.1636606546426265  0 5.086840347361402  0 5  C 0 4.913159652638598  0.034364261168434496 4.8363393453573735  0.1030927835051898 4.769539078156328  L 4.907216494845443 0.1002004008015831  C 4.975945017182198 0.033400133600537174  5.0549828178694725 0  5.144329896907266 0  C 5.233676975945059 0  5.312714776632333 0.033400133600537174  5.381443298969089 0.1002004008015831  L 5.89690721649481 0.6012024048096123  Z " fill-rule="nonzero" fill="#999999" stroke="none" transform="matrix(1 0 0 1 -3 60 )" />
  </g>
</svg>