<?xml version="1.0" encoding="utf-8"?>
<svg version="1.1" xmlns:xlink="http://www.w3.org/1999/xlink" width="9px" height="10px" xmlns="http://www.w3.org/2000/svg">
  <g transform="matrix(1 0 0 1 -214 -60 )">
    <path d="M 5.32919254658384 4.769539078156328  C 5.391304347826156 4.8363393453573735  5.42236024844716 4.913159652638598  5.42236024844716 5  C 5.42236024844716 5.086840347361402  5.391304347826156 5.1636606546426265  5.32919254658384 5.230460921843672  L 0.9875776397516575 9.899799599198417  C 0.925465838509342 9.966599866399463  0.8540372670807869 10  0.7732919254658895 10  C 0.6925465838508899 10  0.6211180124223347 9.966599866399463  0.559006211180224 9.899799599198417  L 0.0931677018633195 9.398797595190388  C 0.0310559006211065 9.331997327989313  0 9.25517702070809  0 9.168336673346687  C 0 9.081496325985313  0.0310559006211065 9.004676018704089  0.0931677018633195 8.937875751503014  L 3.754658385093137 5  L 0.0931677018633195 1.0621242484969855  C 0.0310559006211065 0.9953239812959112  0 0.918503674014687  0 0.8316633266533131  C 0 0.7448229792919108  0.0310559006211065 0.6680026720106866  0.0931677018633195 0.6012024048096123  L 0.559006211180224 0.1002004008015831  C 0.6211180124223347 0.033400133600537174  0.6925465838508899 0  0.7732919254658895 0  C 0.8540372670807869 0  0.925465838509342 0.033400133600537174  0.9875776397516575 0.1002004008015831  L 5.32919254658384 4.769539078156328  Z M 8.90683229813668 4.769539078156328  C 8.968944099378893 4.8363393453573735  9 4.913159652638598  9 5  C 9 5.086840347361402  8.968944099378893 5.1636606546426265  8.90683229813668 5.230460921843672  L 4.565217391304395 9.899799599198417  C 4.503105590062183 9.966599866399463  4.431677018633525 10  4.350931677018729 10  C 4.270186335403628 10  4.198757763975073 9.966599866399463  4.136645962732962 9.899799599198417  L 3.6708074534161597 9.398797595190388  C 3.6086956521738442 9.331997327989313  3.5776397515528404 9.25517702070809  3.5776397515528404 9.168336673346687  C 3.5776397515528404 9.081496325985313  3.6086956521738442 9.004676018704089  3.6708074534161597 8.937875751503014  L 7.332298136645977 5  L 3.6708074534161597 1.0621242484969855  C 3.6086956521738442 0.9953239812959112  3.5776397515528404 0.918503674014687  3.5776397515528404 0.8316633266533131  C 3.5776397515528404 0.7448229792919108  3.6086956521738442 0.6680026720106866  3.6708074534161597 0.6012024048096123  L 4.136645962732962 0.1002004008015831  C 4.198757763975073 0.033400133600537174  4.270186335403628 0  4.350931677018729 0  C 4.431677018633525 0  4.503105590062183 0.033400133600537174  4.565217391304395 0.1002004008015831  L 8.90683229813668 4.769539078156328  Z " fill-rule="nonzero" fill="#999999" stroke="none" transform="matrix(1 0 0 1 214 60 )" />
  </g>
</svg>