<?xml version="1.0" encoding="utf-8"?>
<svg version="1.1" xmlns:xlink="http://www.w3.org/1999/xlink" width="6px" height="10px" xmlns="http://www.w3.org/2000/svg">
  <g transform="matrix(1 0 0 1 -199 -60 )">
    <path d="M 5.89690721649481 4.769539078156328  C 5.9656357388315655 4.8363393453573735  6 4.913159652638598  6 5  C 6 5.086840347361402  5.9656357388315655 5.1636606546426265  5.89690721649481 5.230460921843672  L 1.0927835051545571 9.899799599198417  C 1.0240549828178018 9.966599866399463  0.9450171821305275 10  0.8556701030927343 10  C 0.766323024054941 10  0.6872852233676667 9.966599866399463  0.6185567010309114 9.899799599198417  L 0.1030927835051898 9.398797595190388  C 0.034364261168434496 9.331997327989313  0 9.25517702070809  0 9.168336673346687  C 0 9.081496325985313  0.034364261168434496 9.004676018704089  0.1030927835051898 8.937875751503014  L 4.154639175257671 5  L 0.1030927835051898 1.0621242484969855  C 0.034364261168434496 0.9953239812959112  0 0.918503674014687  0 0.8316633266533131  C 0 0.7448229792919108  0.034364261168434496 0.6680026720106866  0.1030927835051898 0.6012024048096123  L 0.6185567010309114 0.1002004008015831  C 0.6872852233676667 0.033400133600537174  0.766323024054941 0  0.8556701030927343 0  C 0.9450171821305275 0  1.0240549828178018 0.033400133600537174  1.0927835051545571 0.1002004008015831  L 5.89690721649481 4.769539078156328  Z " fill-rule="nonzero" fill="#999999" stroke="none" transform="matrix(1 0 0 1 199 60 )" />
  </g>
</svg>