<?xml version="1.0" encoding="utf-8"?>
<svg version="1.1" xmlns:xlink="http://www.w3.org/1999/xlink" width="12px" height="12px" xmlns="http://www.w3.org/2000/svg">
  <g transform="matrix(1 0 0 1 -1258 -32 )">
    <path d="M 4 5.71429  L 4 7.42857  L 5.71429 7.42857  L 5.71429 5.71429  L 4 5.71429  Z M 6.28571 8  L 6.28571 9.71429  L 8 9.71429  L 8 8  L 6.28571 8  Z M 4 8  L 4 9.71429  L 5.71429 9.71429  L 5.71429 8  L 4 8  Z M 1.71429 5.71429  L 1.71429 7.42857  L 3.4285699999999997 7.42857  L 3.4285699999999997 5.71429  L 1.71429 5.71429  Z M 1.71429 8  L 1.71429 9.71429  L 3.4285699999999997 9.71429  L 3.4285699999999997 8  L 1.71429 8  Z M 6.28571 5.71429  L 6.28571 7.42857  L 8 7.42857  L 8 5.71429  L 6.28571 5.71429  Z M 8.57143 3.4285699999999997  L 8.57143 5.14286  L 10.2857 5.14286  L 10.2857 3.4285699999999997  L 8.57143 3.4285699999999997  Z M 12 0.571429  C 12 0.256  11.744 0  11.4286 0  L 0.571429 0  C 0.256 0  0 0.256  0 0.571429  L 0 10.8571  C 0 11.1726  0.256 11.4286  0.571429 11.4286  L 11.4286 11.4286  C 11.744 11.4286  12 11.1726  12 10.8571  L 12 0.571429  Z M 11.4286 2.85714  L 11.4286 10.2857  C 11.4286 10.6011  11.1726 10.8571  10.8571 10.8571  L 1.14286 10.8571  C 0.827429 10.8571  0.571429 10.6011  0.571429 10.2857  L 0.571429 2.85714  C 0.571429 2.54171  0.827429 2.28571  1.14286 2.28571  L 10.8571 2.28571  C 11.1726 2.28571  11.4286 2.54171  11.4286 2.85714  Z M 8.57143 5.71429  L 8.57143 7.42857  L 10.2857 7.42857  L 10.2857 5.71429  L 8.57143 5.71429  Z M 6.28571 3.4285699999999997  L 6.28571 5.14286  L 8 5.14286  L 8 3.4285699999999997  L 6.28571 3.4285699999999997  Z " fill-rule="nonzero" fill="#999999" stroke="none" transform="matrix(1 0 0 1 1258 32 )" />
  </g>
</svg>