<?xml version="1.0" standalone="no"?><!DOCTYPE svg PUBLIC "-//W3C//DTD SVG 1.1//EN" "http://www.w3.org/Graphics/SVG/1.1/DTD/svg11.dtd"><svg height="1024" node-id="1" sillyvg="true" template-height="1024" template-width="1024" version="1.1" viewBox="0 0 1024 1024" width="1024" xmlns="http://www.w3.org/2000/svg" xmlns:xlink="http://www.w3.org/1999/xlink"><defs node-id="43"><linearGradient gradientUnits="objectBoundingBox" id="linearGradient1" node-id="45" spreadMethod="pad" x1="0.10956353" x2="0.9235294" y1="0.8108553" y2="0.16976193"><stop offset="0" stop-color="#aeb7c4"></stop><stop offset="1" stop-color="#cfd5e0"></stop></linearGradient><linearGradient gradientUnits="objectBoundingBox" id="linearGradient-1" node-id="3" spreadMethod="pad" x1="0.10956353" x2="0.9235294" y1="0.8108553" y2="0.16976193"><stop offset="0" stop-color="#aeb7c4"></stop><stop offset="1" stop-color="#cfd5e0"></stop></linearGradient><linearGradient gradientUnits="objectBoundingBox" id="linearGradient-2" node-id="6" spreadMethod="pad" x1="0.6765437" x2="0.36497417" y1="0.89788246" y2="-0.02275011"><stop offset="0" stop-color="#dce2ec"></stop><stop offset="1" stop-color="#ffffff"></stop></linearGradient><linearGradient gradientUnits="objectBoundingBox" id="linearGradient-3" node-id="9" spreadMethod="pad" x1="1.0296922" x2="-0.07458816" y1="0.8108553" y2="0.16976193"><stop offset="0" stop-color="#aeb7c4"></stop><stop offset="1" stop-color="#cfd5e0"></stop></linearGradient><linearGradient gradientUnits="objectBoundingBox" id="linearGradient-4" node-id="12" spreadMethod="pad" x1="1.1386389" x2="0.011550162" y1="0.89788246" y2="-0.02275011"><stop offset="0" stop-color="#dce2ec"></stop><stop offset="1" stop-color="#ffffff"></stop></linearGradient><linearGradient gradientUnits="objectBoundingBox" id="linearGradient-5" node-id="15" spreadMethod="pad" x1="1.0422176" x2="-0.08817519" y1="0.5240643" y2="0.47443518"><stop offset="0" stop-color="#aeb7c4"></stop><stop offset="1" stop-color="#cfd5e0"></stop></linearGradient><linearGradient gradientUnits="objectBoundingBox" id="linearGradient-6" node-id="18" spreadMethod="pad" x1="0.70097554" x2="0.34628794" y1="0.89788246" y2="-0.02275011"><stop offset="0" stop-color="#dce2ec"></stop><stop offset="1" stop-color="#ffffff"></stop></linearGradient><linearGradient gradientUnits="objectBoundingBox" id="linearGradient-7" node-id="21" spreadMethod="pad" x1="0.68495446" x2="0.299369" y1="0.8108553" y2="0.16976193"><stop offset="0" stop-color="#aeb7c4"></stop><stop offset="1" stop-color="#cfd5e0"></stop></linearGradient></defs><path d="M 0.00 0.00 L 1024.00 0.00 L 1024.00 1024.00 L 0.00 1024.00 Z" fill="none" id="bg" node-id="25" stroke="none" target-height="1024" target-width="1024" target-x="0" target-y="0"></path><g node-id="93"><path d="M 64.00 64.00 L 960.00 64.00 L 960.00 960.00 L 64.00 960.00 Z" fill="none" group-id="1" id="矩形" node-id="27" stroke="none" target-height="896" target-width="896" target-x="64" target-y="64"></path><g node-id="94"><path d="M 354.90 462.20 L 334.90 476.20 L 324.70 483.80 L 314.60 491.70 L 304.80 499.90 L 295.80 508.20 L 284.80 519.70 L 280.20 525.30 L 275.90 531.20 L 272.40 537.00 L 269.50 542.60 L 267.80 547.00 L 266.60 551.20 L 265.90 555.40 L 265.60 559.50 L 265.60 626.50 L 265.90 628.40 L 266.50 630.10 L 267.60 631.70 L 270.70 634.30 L 274.70 635.90 L 278.90 636.40 L 281.00 636.20 L 284.90 634.70 L 295.10 628.90 L 301.40 625.90 L 307.80 623.10 L 315.00 620.60 L 323.10 618.10 L 331.20 616.20 L 340.10 614.60 L 349.90 613.40 L 364.90 612.60 L 387.90 613.60 L 393.00 613.30 L 397.10 612.70 L 400.50 611.70 L 403.90 610.20 L 406.60 608.40 L 408.80 606.30 L 410.50 603.90 L 411.80 601.20 L 412.70 598.30 L 413.30 595.00 L 413.40 591.40 L 413.10 586.60 L 412.30 581.30 L 410.90 575.60 L 406.90 564.20 L 400.10 549.30 L 390.60 532.00 L 377.10 510.70 L 368.10 498.10 L 354.90 462.20 Z" fill="url(#linearGradient1)" fill-rule="nonzero" group-id="1,2" id="Path" node-id="29" stroke="none" target-height="174.20001" target-width="147.79999" target-x="265.6" target-y="462.2"></path><g node-id="95"><path d="M 669.10 449.80 L 689.10 463.70 L 699.30 471.30 L 709.40 479.20 L 719.20 487.40 L 728.20 495.70 L 739.20 507.20 L 743.80 512.90 L 748.10 518.80 L 751.70 524.50 L 754.50 530.10 L 756.20 534.50 L 757.40 538.80 L 758.10 543.00 L 758.40 547.10 L 758.40 614.00 L 758.10 616.00 L 757.50 617.70 L 756.40 619.30 L 753.30 621.80 L 751.40 622.80 L 747.30 623.90 L 743.00 623.80 L 739.10 622.30 L 728.90 616.50 L 722.60 613.40 L 716.20 610.70 L 709.00 608.10 L 701.00 605.70 L 692.80 603.70 L 683.90 602.10 L 674.10 600.90 L 659.10 600.20 L 636.10 601.10 L 631.00 600.90 L 626.90 600.20 L 623.50 599.30 L 620.10 597.70 L 617.40 595.90 L 615.20 593.80 L 613.50 591.40 L 612.20 588.80 L 611.30 585.80 L 610.70 582.50 L 610.60 578.90 L 610.90 574.10 L 611.70 568.90 L 613.10 563.20 L 617.10 551.80 L 623.90 536.90 L 633.40 519.60 L 646.90 498.20 L 655.90 485.60 L 669.10 449.80 Z" fill="url(#linearGradient-1)" fill-rule="nonzero" group-id="1,2,3" id="Path备份-4" node-id="31" stroke="none" target-height="174.10004" target-width="147.80005" target-x="610.6" target-y="449.8"></path></g><g node-id="96"><path d="M 452.30 394.40 L 452.50 399.20 L 454.10 408.20 L 455.40 412.50 L 457.70 418.10 L 460.50 423.30 L 463.80 428.20 L 467.70 432.80 L 472.00 436.90 L 476.80 440.60 L 481.90 443.80 L 487.30 446.50 L 493.10 448.70 L 502.30 450.90 L 512.00 451.60 L 521.70 450.90 L 530.90 448.70 L 536.70 446.50 L 542.10 443.80 L 547.20 440.60 L 552.00 436.90 L 556.30 432.80 L 560.20 428.20 L 563.50 423.30 L 566.30 418.10 L 568.60 412.50 L 569.90 408.20 L 571.50 399.20 L 571.70 394.40 L 571.50 389.70 L 570.90 385.10 L 568.60 376.40 L 566.30 370.80 L 563.50 365.60 L 560.20 360.70 L 556.30 356.10 L 552.00 352.00 L 547.20 348.30 L 542.10 345.10 L 536.70 342.40 L 530.90 340.20 L 526.40 338.90 L 517.00 337.50 L 512.00 337.30 L 502.30 338.00 L 493.10 340.20 L 487.30 342.40 L 481.90 345.10 L 476.80 348.30 L 472.00 352.00 L 467.70 356.10 L 463.80 360.70 L 460.50 365.60 L 457.70 370.80 L 455.40 376.40 L 454.10 380.70 L 452.50 389.70 L 452.30 394.40 Z" fill="#ffffff" fill-rule="nonzero" group-id="1,2,4" id="路径" node-id="33" stroke="none" target-height="114.30002" target-width="119.400024" target-x="452.3" target-y="337.3"></path><path d="M 512.00 458.00 L 502.30 457.20 L 497.70 456.20 L 493.30 454.90 L 487.50 452.60 L 482.00 449.80 L 476.90 446.40 L 472.20 442.50 L 467.90 438.20 L 464.00 433.40 L 460.60 428.30 L 457.80 422.80 L 455.50 416.90 L 453.20 407.70 L 452.30 397.90 L 452.60 391.90 L 453.40 386.00 L 454.80 380.30 L 456.70 374.80 L 459.20 369.50 L 462.10 364.40 L 465.50 359.60 L 469.50 355.10 L 473.90 351.00 L 478.60 347.50 L 483.50 344.40 L 488.80 341.90 L 494.20 339.90 L 499.80 338.40 L 505.60 337.60 L 511.60 337.30 L 516.90 337.50 L 521.70 338.00 L 530.70 340.30 L 536.50 342.60 L 542.00 345.40 L 547.10 348.80 L 551.80 352.70 L 556.10 357.10 L 560.00 361.80 L 563.40 367.00 L 566.20 372.50 L 568.50 378.30 L 569.90 382.80 L 571.40 392.30 L 571.70 397.30 L 571.40 403.40 L 570.60 409.20 L 569.20 414.90 L 567.30 420.40 L 564.80 425.80 L 561.90 430.80 L 558.50 435.60 L 554.50 440.10 L 550.10 444.20 L 545.40 447.80 L 540.50 450.80 L 535.30 453.40 L 529.80 455.40 L 524.20 456.80 L 518.40 457.70 L 512.00 458.00 Z M 512.00 339.00 L 505.90 339.30 L 500.30 340.20 L 494.80 341.60 L 489.50 343.60 L 484.40 346.00 L 479.60 349.00 L 475.10 352.40 L 470.80 356.40 L 466.90 360.80 L 463.60 365.50 L 460.70 370.40 L 458.30 375.50 L 456.50 380.90 L 455.10 386.40 L 454.30 392.10 L 454.00 397.90 L 454.80 407.50 L 457.10 416.40 L 459.30 422.10 L 462.10 427.40 L 465.30 432.40 L 469.10 437.00 L 473.30 441.20 L 477.90 445.00 L 482.80 448.30 L 488.10 451.10 L 493.80 453.30 L 498.10 454.60 L 507.20 456.10 L 512.30 456.30 L 518.10 455.90 L 523.80 455.00 L 529.20 453.60 L 534.50 451.70 L 539.60 449.20 L 544.40 446.20 L 548.90 442.80 L 553.20 438.80 L 557.10 434.40 L 560.40 429.80 L 563.30 424.90 L 565.70 419.70 L 567.60 414.30 L 568.90 408.80 L 569.70 403.20 L 570.00 397.30 L 569.20 387.80 L 566.90 378.90 L 564.70 373.20 L 561.90 367.90 L 558.60 362.90 L 554.90 358.20 L 550.70 354.00 L 546.10 350.20 L 541.10 347.00 L 535.80 344.20 L 530.20 342.00 L 525.90 340.70 L 521.40 339.80 L 512.00 339.00 Z" fill="#7993aa" fill-rule="nonzero" group-id="1,2,4" id="形状" node-id="34" stroke="none" target-height="120.70001" target-width="119.400024" target-x="452.3" target-y="337.3"></path><path d="M 417.10 680.40 L 413.80 679.80 L 412.30 679.10 L 409.80 676.90 L 408.80 675.50 L 402.50 663.10 L 396.40 649.90 L 390.50 635.90 L 385.00 621.00 L 380.00 606.10 L 375.40 590.60 L 371.20 574.30 L 367.20 557.40 L 363.80 540.50 L 360.80 523.20 L 358.20 505.40 L 356.00 487.00 L 354.30 468.70 L 353.00 450.20 L 352.20 431.30 L 351.90 412.10 L 352.00 399.10 L 352.60 386.00 L 353.80 372.70 L 355.40 359.20 L 357.50 345.60 L 360.10 332.20 L 363.10 318.70 L 366.60 305.00 L 370.60 291.30 L 375.10 277.40 L 380.00 263.80 L 385.40 250.10 L 391.20 236.30 L 397.60 222.50 L 404.30 208.90 L 411.40 195.20 L 419.10 181.60 L 427.20 167.80 L 442.20 144.30 L 460.10 118.80 L 479.00 94.40 L 486.60 85.30 L 498.40 72.00 L 503.30 66.80 L 505.40 65.20 L 507.60 64.30 L 509.90 64.00 L 513.40 64.70 L 516.40 66.70 L 533.30 85.00 L 550.50 105.60 L 560.30 118.20 L 571.20 133.00 L 578.50 143.40 L 593.80 166.80 L 602.10 180.40 L 609.90 194.00 L 617.20 207.50 L 624.10 221.00 L 630.60 234.80 L 636.70 248.50 L 642.20 262.10 L 647.20 275.60 L 651.90 289.50 L 656.10 303.20 L 659.80 316.80 L 663.00 330.20 L 665.70 343.60 L 668.00 357.20 L 669.80 370.60 L 671.10 383.90 L 671.80 397.10 L 672.20 410.10 L 672.00 429.30 L 671.40 448.10 L 670.40 466.70 L 668.90 485.00 L 666.90 503.40 L 664.50 521.30 L 661.70 538.60 L 658.50 555.50 L 654.80 572.50 L 650.80 588.80 L 646.30 604.40 L 641.60 619.30 L 636.20 634.30 L 630.60 648.40 L 624.60 661.60 L 618.40 674.10 L 617.50 675.60 L 615.00 677.80 L 611.90 679.00 L 610.20 679.10 L 417.10 680.40 Z" fill="url(#linearGradient-2)" fill-rule="nonzero" group-id="1,2,4" id="路径" node-id="35" stroke="none" target-height="616.4" target-width="320.30002" target-x="351.9" target-y="64"></path><g node-id="97"><path d="M 571.70 261.00 L 571.50 266.30 L 570.80 271.40 L 569.80 276.30 L 568.50 281.10 L 566.70 285.80 L 562.30 294.50 L 559.60 298.50 L 553.30 305.90 L 546.00 312.30 L 541.90 315.00 L 533.30 319.50 L 524.00 322.70 L 519.10 323.70 L 514.10 324.30 L 508.90 324.50 L 503.60 324.30 L 498.60 323.70 L 493.70 322.70 L 484.40 319.50 L 475.80 315.00 L 471.80 312.30 L 464.50 305.90 L 458.20 298.50 L 455.50 294.50 L 451.00 285.80 L 449.30 281.10 L 446.90 271.40 L 446.30 266.30 L 446.10 261.00 L 446.30 255.70 L 446.90 250.60 L 449.30 240.90 L 451.00 236.20 L 455.50 227.50 L 458.20 223.50 L 464.50 216.10 L 468.00 212.80 L 475.80 207.00 L 484.40 202.50 L 493.70 199.30 L 498.60 198.30 L 503.60 197.70 L 508.90 197.50 L 514.10 197.70 L 519.10 198.30 L 524.00 199.30 L 533.30 202.50 L 541.90 207.00 L 549.80 212.80 L 553.30 216.10 L 559.60 223.50 L 562.30 227.50 L 566.70 236.20 L 569.80 245.70 L 570.80 250.60 L 571.50 255.70 L 571.70 261.00 Z" fill="url(#linearGradient-3)" fill-rule="nonzero" group-id="1,2,4,5" id="椭圆形" node-id="37" stroke="none" target-height="127" target-width="125.600006" target-x="446.1" target-y="197.5"></path><path d="M 546.50 261.00 L 545.80 268.70 L 543.60 275.80 L 541.40 280.30 L 538.70 284.30 L 535.50 288.00 L 531.90 291.20 L 527.90 293.90 L 523.50 296.10 L 516.50 298.30 L 508.90 299.10 L 501.20 298.30 L 494.20 296.10 L 489.80 293.90 L 485.80 291.20 L 482.20 288.00 L 479.00 284.30 L 476.30 280.30 L 474.10 275.80 L 472.00 268.70 L 471.20 261.00 L 472.00 253.30 L 474.10 246.20 L 476.30 241.70 L 479.00 237.70 L 482.20 234.00 L 485.80 230.80 L 489.80 228.10 L 494.20 225.90 L 501.20 223.70 L 508.90 222.90 L 516.50 223.70 L 523.50 225.90 L 527.90 228.10 L 531.90 230.80 L 535.50 234.00 L 538.70 237.70 L 541.40 241.70 L 543.60 246.20 L 545.80 253.30 L 546.50 261.00 Z" fill="url(#linearGradient-4)" fill-rule="nonzero" group-id="1,2,4,5" id="椭圆形" node-id="38" stroke="none" target-height="76.20001" target-width="75.29999" target-x="471.2" target-y="222.9"></path></g><path d="M 612.10 672.90 L 617.40 662.90 L 622.60 652.10 L 627.60 640.70 L 632.20 629.20 L 636.60 617.00 L 640.80 604.10 L 628.70 611.20 L 606.40 623.10 L 585.50 632.70 L 575.20 636.70 L 565.30 640.10 L 555.70 642.90 L 545.90 645.30 L 536.20 647.00 L 526.60 648.20 L 517.10 648.90 L 507.60 649.00 L 498.00 648.60 L 488.10 647.60 L 478.10 646.10 L 468.30 644.00 L 458.10 641.50 L 447.50 638.30 L 425.60 630.40 L 402.20 620.30 L 389.50 614.30 L 397.70 635.80 L 402.00 645.90 L 406.60 655.80 L 416.20 674.00 L 612.10 672.90 Z" fill="url(#linearGradient-5)" fill-rule="nonzero" group-id="1,2,4" id="路径" node-id="39" stroke="none" target-height="69.900024" target-width="251.29999" target-x="389.5" target-y="604.1"></path><path d="M 519.20 953.70 L 516.00 953.10 L 514.50 952.40 L 513.20 951.40 L 511.10 948.80 L 493.10 914.40 L 483.00 893.50 L 472.40 870.40 L 462.50 846.50 L 454.10 823.20 L 450.70 812.00 L 448.30 801.90 L 447.00 795.20 L 446.10 784.10 L 446.30 776.20 L 447.00 768.50 L 448.30 760.90 L 450.10 753.50 L 452.40 746.30 L 455.10 739.50 L 458.30 732.90 L 462.00 726.60 L 466.20 720.80 L 473.40 712.50 L 477.20 708.90 L 485.40 702.80 L 489.70 700.30 L 498.60 696.40 L 508.00 694.00 L 512.80 693.30 L 518.10 693.10 L 527.80 693.90 L 532.50 694.90 L 541.60 698.00 L 550.40 702.50 L 554.60 705.40 L 562.40 712.00 L 566.20 715.90 L 569.80 720.20 L 574.00 726.00 L 577.70 732.20 L 581.00 738.80 L 583.80 745.60 L 586.20 752.70 L 588.00 760.10 L 589.40 767.60 L 590.20 775.30 L 590.50 783.20 L 589.70 794.30 L 588.50 801.00 L 586.20 811.10 L 583.00 822.30 L 574.90 845.70 L 565.20 869.80 L 554.90 893.00 L 545.00 914.00 L 527.50 948.70 L 526.50 950.10 L 524.00 952.30 L 522.50 953.00 L 519.20 953.70 Z" fill="url(#linearGradient-6)" fill-rule="nonzero" group-id="1,2,4" id="路径" node-id="40" stroke="none" target-height="260.60004" target-width="144.4" target-x="446.1" target-y="693.1"></path><path d="M 515.00 699.80 L 520.20 700.10 L 525.20 700.90 L 530.10 702.10 L 534.80 703.90 L 539.40 706.10 L 543.80 708.70 L 548.00 711.80 L 552.10 715.30 L 555.80 719.10 L 559.40 723.20 L 562.70 727.70 L 568.40 737.70 L 573.00 748.70 L 576.20 760.70 L 577.20 767.00 L 578.10 780.10 L 577.30 790.80 L 576.10 797.40 L 573.70 807.30 L 570.40 818.40 L 562.20 841.50 L 552.40 865.40 L 542.10 888.40 L 532.40 908.90 L 516.20 940.60 L 499.70 909.10 L 489.60 888.70 L 479.00 865.90 L 469.00 842.10 L 460.40 819.10 L 457.00 808.00 L 454.50 798.20 L 453.30 791.60 L 452.50 785.90 L 452.30 781.00 L 452.50 774.20 L 453.00 767.70 L 454.00 761.50 L 457.00 749.40 L 461.40 738.30 L 467.10 728.20 L 470.40 723.60 L 473.90 719.50 L 477.60 715.60 L 481.70 712.10 L 485.90 709.00 L 490.30 706.30 L 494.80 704.00 L 499.60 702.20 L 504.50 700.90 L 509.50 700.10 L 515.00 699.80 M 515.00 680.40 L 508.90 680.70 L 503.40 681.40 L 498.00 682.50 L 492.70 684.10 L 487.50 686.10 L 482.40 688.50 L 477.50 691.40 L 472.70 694.70 L 468.20 698.30 L 463.90 702.30 L 459.70 706.80 L 455.60 711.70 L 451.10 718.10 L 447.00 724.90 L 443.40 732.20 L 440.40 739.70 L 437.90 747.60 L 435.90 755.70 L 434.60 764.00 L 433.70 772.40 L 433.50 781.10 L 433.80 787.20 L 434.70 794.30 L 436.20 802.60 L 438.60 812.20 L 442.00 823.30 L 446.30 835.90 L 451.90 850.40 L 458.90 867.00 L 467.40 885.80 L 479.20 910.30 L 489.40 930.60 L 499.90 950.20 L 501.80 953.10 L 504.10 955.40 L 506.70 957.40 L 509.70 958.80 L 512.80 959.70 L 516.10 960.00 L 519.60 959.70 L 522.70 958.80 L 525.70 957.30 L 528.40 955.30 L 530.60 952.90 L 532.50 950.00 L 542.70 930.20 L 552.80 909.80 L 564.20 885.20 L 572.50 866.20 L 579.30 849.50 L 584.70 835.00 L 588.90 822.30 L 592.10 811.20 L 594.30 801.50 L 595.80 793.20 L 596.60 786.10 L 596.80 780.00 L 596.40 771.40 L 595.50 763.00 L 594.00 754.80 L 592.00 746.70 L 589.40 738.90 L 586.30 731.40 L 582.70 724.20 L 578.60 717.40 L 573.90 711.00 L 569.90 706.20 L 565.60 701.80 L 561.30 697.90 L 556.70 694.30 L 551.90 691.10 L 547.00 688.30 L 542.00 685.90 L 536.80 684.00 L 531.50 682.40 L 526.10 681.30 L 520.60 680.60 L 515.00 680.40 Z" fill="url(#linearGradient-7)" fill-rule="nonzero" group-id="1,2,4" id="形状" node-id="41" stroke="none" target-height="279.59998" target-width="163.29999" target-x="433.5" target-y="680.4"></path></g></g></g></svg>