<?xml version="1.0" encoding="utf-8"?>
<svg version="1.1" xmlns:xlink="http://www.w3.org/1999/xlink" width="364px" height="164px" xmlns="http://www.w3.org/2000/svg">
  <defs>
    <filter x="-1px" y="-1px" width="364px" height="164px" filterUnits="userSpaceOnUse" id="filter86">
      <feOffset dx="1" dy="1" in="SourceAlpha" result="shadowOffsetInner" />
      <feGaussianBlur stdDeviation="1" in="shadowOffsetInner" result="shadowGaussian" />
      <feComposite in2="shadowGaussian" operator="atop" in="SourceAlpha" result="shadowComposite" />
      <feColorMatrix type="matrix" values="0 0 0 0 0.6235294117647059  0 0 0 0 0.6235294117647059  0 0 0 0 0.6235294117647059  0 0 0 0.34901960784313724 0  " in="shadowComposite" />
    </filter>
    <g id="widget87">
      <path d="M 1 10.000000000000002  A 9 9 0 0 1 9.999999999999998 1 L 350 1  A 9 9 0 0 1 359 10 L 359 150  A 9 9 0 0 1 350 159 L 10 159  A 9 9 0 0 1 1 150 L 1 10  Z " fill-rule="nonzero" fill="#75adff" stroke="none" fill-opacity="0.25882352941176473" />
      <path d="M 0.5 10.000000000000002  A 9.5 9.5 0 0 1 9.999999999999998 0.5 L 350 0.5  A 9.5 9.5 0 0 1 359.5 10 L 359.5 150  A 9.5 9.5 0 0 1 350 159.5 L 10 159.5  A 9.5 9.5 0 0 1 0.5 150 L 0.5 10  Z " stroke-width="1" stroke="#e6e6e6" fill="none" stroke-opacity="0.6509803921568628" />
    </g>
  </defs>
  <g transform="matrix(1 0 0 1 1 1 )">
    <use xlink:href="#widget87" filter="url(#filter86)" />
    <use xlink:href="#widget87" />
  </g>
</svg>