<?xml version="1.0" encoding="utf-8"?>
<svg version="1.1" xmlns:xlink="http://www.w3.org/1999/xlink" width="261px" height="42px" viewBox="223 121  261 42" xmlns="http://www.w3.org/2000/svg">
  <path d="M 224 127  A 5 5 0 0 1 229 122 L 478 122  A 5 5 0 0 1 483 127 L 483 157  A 5 5 0 0 1 478 162 L 229 162  A 5 5 0 0 1 224 157 L 224 127  Z " fill-rule="nonzero" fill="#f0f0f0" stroke="none" />
  <path d="M 223.5 127  A 5.5 5.5 0 0 1 229 121.5 L 478 121.5  A 5.5 5.5 0 0 1 483.5 127 L 483.5 157  A 5.5 5.5 0 0 1 478 162.5 L 229 162.5  A 5.5 5.5 0 0 1 223.5 157 L 223.5 127  Z " stroke-width="1" stroke="#797979" fill="none" stroke-opacity="0.24705882352941178" />
</svg>