<?xml version="1.0" encoding="utf-8"?>
<svg version="1.1" xmlns:xlink="http://www.w3.org/1999/xlink" width="403px" height="422px" xmlns="http://www.w3.org/2000/svg">
  <g transform="matrix(1 0 0 1 -1119 -290 )">
    <path d="M 170.54929577464804 29.126760563380287  L 170.54929577464804 29.126760563380287  C 128.29577464788736 43.21126760563379  39.563380281690115 95.32394366197184  39.563380281690115 95.32394366197184  C 39.563380281690115 95.32394366197184  0.12676056338023045 155.88732394366195  0.12676056338023045 172.7887323943662  C 0.12676056338023045 189.69014084507046  36.74647887323954 278.4225352112676  56.464788732394474 302.3661971830986  C 76.18309859154942 326.30985915492965  171.95774647887333 415.90140845070437  201.53521126760577 416.4507042253522  C 231.11267605633816 417  353.6478873239437 382.6478873239437  353.6478873239437 382.6478873239437  L 397.30985915492965 302.3661971830986  C 397.30985915492965 302.3661971830986  388.8591549295777 286.87323943661977  380.4084507042255 264.33802816901414  C 371.95774647887333 241.8028169014085  329.70422535211287 151.66197183098598  321.2535211267607 123.49295774647891  C 312.8028169014085 95.32394366197184  245.19718309859175 0.9577464788732756  232.52112676056345 0.9577464788732756  C 219.84507042253517 0.9577464788732756  170.54929577464804 29.126760563380287  170.54929577464804 29.126760563380287  Z " fill-rule="nonzero" fill="#0007ff" stroke="none" fill-opacity="0.1607843137254902" transform="matrix(1 0 0 1 1121 292 )" />
    <path d="M 170.54929577464804 29.126760563380287  C 128.29577464788736 43.21126760563379  39.563380281690115 95.32394366197184  39.563380281690115 95.32394366197184  C 39.563380281690115 95.32394366197184  0.12676056338023045 155.88732394366195  0.12676056338023045 172.7887323943662  C 0.12676056338023045 189.69014084507046  36.74647887323954 278.4225352112676  56.464788732394474 302.3661971830986  C 76.18309859154942 326.30985915492965  171.95774647887333 415.90140845070437  201.53521126760577 416.4507042253522  C 231.11267605633816 417  353.6478873239437 382.6478873239437  353.6478873239437 382.6478873239437  L 397.30985915492965 302.3661971830986  C 397.30985915492965 302.3661971830986  388.8591549295777 286.87323943661977  380.4084507042255 264.33802816901414  C 371.95774647887333 241.8028169014085  329.70422535211287 151.66197183098598  321.2535211267607 123.49295774647891  C 312.8028169014085 95.32394366197184  245.19718309859175 0.9577464788732756  232.52112676056345 0.9577464788732756  C 219.84507042253517 0.9577464788732756  170.54929577464804 29.126760563380287  170.54929577464804 29.126760563380287  " stroke-width="4" stroke="#0007ff" fill="none" transform="matrix(1 0 0 1 1121 292 )" />
  </g>
</svg>