<?xml version="1.0" encoding="utf-8"?>
<svg version="1.1" xmlns:xlink="http://www.w3.org/1999/xlink" width="199px" height="201px" xmlns="http://www.w3.org/2000/svg">
  <defs>
    <mask fill="white" id="clip223">
      <path d="M 159.29577464788736 192.04225352112678  L 198.73239436619724 52.6056338028169  L 98.73239436619724 0.4929577464788508  C 98.73239436619724 0.4929577464788508  0.1408450704225288 48.380281690140805  0.1408450704225288 72.32394366197184  C 0.1408450704225288 96.26760563380287  8.591549295774712 192.04225352112678  8.591549295774712 192.04225352112678  C 8.591549295774712 192.04225352112678  39.577464788732414 199.98591549295793  59.29577464788736 200.49295774647896  C 79.0140845070423 201  159.29577464788736 192.04225352112678  159.29577464788736 192.04225352112678  Z " fill-rule="evenodd" />
    </mask>
  </defs>
  <g transform="matrix(1 0 0 1 -1690 -615 )">
    <path d="M 159.29577464788736 192.04225352112678  L 198.73239436619724 52.6056338028169  L 98.73239436619724 0.4929577464788508  C 98.73239436619724 0.4929577464788508  0.1408450704225288 48.380281690140805  0.1408450704225288 72.32394366197184  C 0.1408450704225288 96.26760563380287  8.591549295774712 192.04225352112678  8.591549295774712 192.04225352112678  C 8.591549295774712 192.04225352112678  39.577464788732414 199.98591549295793  59.29577464788736 200.49295774647896  C 79.0140845070423 201  159.29577464788736 192.04225352112678  159.29577464788736 192.04225352112678  Z " fill-rule="nonzero" fill="#0007ff" stroke="none" fill-opacity="0.1607843137254902" transform="matrix(1 0 0 1 1690 615 )" />
    <path d="M 159.29577464788736 192.04225352112678  L 198.73239436619724 52.6056338028169  L 98.73239436619724 0.4929577464788508  C 98.73239436619724 0.4929577464788508  0.1408450704225288 48.380281690140805  0.1408450704225288 72.32394366197184  C 0.1408450704225288 96.26760563380287  8.591549295774712 192.04225352112678  8.591549295774712 192.04225352112678  C 8.591549295774712 192.04225352112678  39.577464788732414 199.98591549295793  59.29577464788736 200.49295774647896  C 79.0140845070423 201  159.29577464788736 192.04225352112678  159.29577464788736 192.04225352112678  Z " stroke-width="4" stroke="#0007ff" fill="none" transform="matrix(1 0 0 1 1690 615 )" mask="url(#clip223)" />
  </g>
</svg>