<?xml version="1.0" encoding="utf-8"?>
<svg version="1.1" xmlns:xlink="http://www.w3.org/1999/xlink" width="177px" height="273px" xmlns="http://www.w3.org/2000/svg">
  <g transform="matrix(1 0 0 1 -1717 -307 )">
    <path d="M 158.46478873239448 98.04225352112678  L 144.38028169014092 57.19718309859155  C 144.38028169014092 57.19718309859155  127.47887323943655 5.084507042253563  114.8028169014085 5.084507042253563  C 102.12676056338044 5.084507042253563  50.014084507042526 -6.183098591549253  41.56338028169034 5.084507042253563  C 33.11267605633816 16.35211267605638  0.7183098591549424 40.295774647887356  0.7183098591549424 65.64788732394368  C 0.7183098591549424 91  10.577464788732186 121.98591549295782  26.070422535211268 140.29577464788736  C 41.56338028169034 158.6056338028169  38.74647887323977 248.74647887323954  76.77464788732414 264.2394366197184  C 114.8028169014085 279.73239436619724  158.46478873239448 236.07042253521126  158.46478873239448 236.07042253521126  L 171.14084507042253 192.4084507042254  L 172 113.53521126760563  L 158.46478873239448 98.04225352112678  Z " fill-rule="nonzero" fill="#0007ff" stroke="none" fill-opacity="0.1607843137254902" transform="matrix(1 0 0 1 1719 309 )" />
    <path d="M 144.38028169014092 57.19718309859155  C 144.38028169014092 57.19718309859155  127.47887323943655 5.084507042253563  114.8028169014085 5.084507042253563  C 102.12676056338044 5.084507042253563  50.014084507042526 -6.183098591549253  41.56338028169034 5.084507042253563  C 33.11267605633816 16.35211267605638  0.7183098591549424 40.295774647887356  0.7183098591549424 65.64788732394368  C 0.7183098591549424 91  10.577464788732186 121.98591549295782  26.070422535211268 140.29577464788736  C 41.56338028169034 158.6056338028169  38.74647887323977 248.74647887323954  76.77464788732414 264.2394366197184  C 114.8028169014085 279.73239436619724  158.46478873239448 236.07042253521126  158.46478873239448 236.07042253521126  L 171.14084507042253 192.4084507042254  L 172 113.53521126760563  L 158.46478873239448 98.04225352112678  " stroke-width="4" stroke="#0007ff" fill="none" transform="matrix(1 0 0 1 1719 309 )" />
  </g>
</svg>