<?xml version="1.0" encoding="utf-8"?>
<svg version="1.1" xmlns:xlink="http://www.w3.org/1999/xlink" width="22px" height="22px" xmlns="http://www.w3.org/2000/svg">
  <g transform="matrix(1 0 0 1 -453 -131 )">
    <path d="M 21.7314625 21.7314625  C 22.0895125 21.373549999999998  22.0895125 20.7928875  21.7314625 20.4353875  L 16.234762500000002 14.9381375  C 17.526300000000003 13.3586475  18.333425000000002 11.36672625  18.333425000000002 9.166712500000001  C 18.333425000000002 4.104402500000001  14.2294625 0  9.166712500000001 0  C 4.103935000000002 0  0 4.104402500000001  0 9.166712500000001  C 0 14.2294625  4.103935000000002 18.333425000000002  9.166712500000001 18.333425000000002  C 11.36672625 18.333425000000002  13.3586475 17.526300000000003  14.9381375 16.234762500000002  L 20.4353875 21.7314625  C 20.793300000000002 22.0895125  21.373549999999998 22.0895125  21.7314625 21.7314625  Z M 9.166712500000001 16.5001375  C 5.116402500000001 16.5001375  1.8333425000000012 13.21656875  1.8333425000000012 9.166712500000001  C 1.8333425000000012 5.116856250000001  5.116402500000001 1.8333425000000012  9.166712500000001 1.8333425000000012  C 13.217022500000002 1.8333425000000012  16.5001375 5.116856250000001  16.5001375 9.166712500000001  C 16.5001375 13.21656875  13.217022500000002 16.5001375  9.166712500000001 16.5001375  Z " fill-rule="nonzero" fill="#a3a3a3" stroke="none" transform="matrix(1 0 0 1 453 131 )" />
  </g>
</svg>