<?xml version="1.0" encoding="utf-8"?>
<svg version="1.1" xmlns:xlink="http://www.w3.org/1999/xlink" width="23px" height="23px" xmlns="http://www.w3.org/2000/svg">
  <g transform="matrix(1 0 0 1 -1156 -331 )">
    <path d="M 1167.5 334  C 1172.26 334  1176 337.74  1176 342.5  C 1176 347.26  1172.26 351  1167.5 351  C 1162.74 351  1159 347.26  1159 342.5  C 1159 337.74  1162.74 334  1167.5 334  Z " fill-rule="nonzero" fill="#ffffff" stroke="none" fill-opacity="0" />
    <path d="M 1167.5 333  C 1172.82 333  1177 337.18  1177 342.5  C 1177 347.82  1172.82 352  1167.5 352  C 1162.18 352  1158 347.82  1158 342.5  C 1158 337.18  1162.18 333  1167.5 333  Z " stroke-width="4" stroke="#56e4ff" fill="none" />
  </g>
</svg>